<?xml version="1.0" encoding="UTF-8" standalone="no"?>
<!-- Created with Inkscape (http://www.inkscape.org/) -->

<svg
   width="13.053047mm"
   height="13.053015mm"
   viewBox="0 0 13.053047 13.053015"
   version="1.1"
   id="svg1"
   xml:space="preserve"
   inkscape:version="1.3 (0e150ed6c4, 2023-07-21)"
   sodipodi:docname="remake.svg"
   xmlns:inkscape="http://www.inkscape.org/namespaces/inkscape"
   xmlns:sodipodi="http://sodipodi.sourceforge.net/DTD/sodipodi-0.dtd"
   xmlns="http://www.w3.org/2000/svg"
   xmlns:svg="http://www.w3.org/2000/svg"><sodipodi:namedview
     id="namedview1"
     pagecolor="#ffffff"
     bordercolor="#000000"
     borderopacity="0.25"
     inkscape:showpageshadow="2"
     inkscape:pageopacity="0.0"
     inkscape:pagecheckerboard="0"
     inkscape:deskcolor="#d1d1d1"
     inkscape:document-units="mm"
     inkscape:zoom="0.1917561"
     inkscape:cx="4414.4619"
     inkscape:cy="4956.8175"
     inkscape:window-width="1858"
     inkscape:window-height="1057"
     inkscape:window-x="-8"
     inkscape:window-y="-8"
     inkscape:window-maximized="1"
     inkscape:current-layer="layer1" /><defs
     id="defs1" /><g
     inkscape:label="Layer 1"
     inkscape:groupmode="layer"
     id="layer1"
     transform="translate(-505.67549,-920.76389)"><circle
       style="opacity:1;fill:#3e2c20;fill-opacity:1;stroke-width:0.0473043;stroke-linecap:round"
       id="path17"
       cx="512.20203"
       cy="927.29041"
       r="6.5265203"
       inkscape:export-filename="bubble-logo.webp"
       inkscape:export-xdpi="96"
       inkscape:export-ydpi="96" /><path
       style="fill:#feffff;fill-opacity:1;stroke-width:0.0595577"
       d="m 514.50351,932.14651 c -0.0956,-0.017 -0.21876,-0.0691 -0.31023,-0.13129 -0.0688,-0.0467 -0.0619,-0.0517 0.0224,-0.0162 0.28001,0.11784 0.64955,0.11096 0.90169,-0.0168 0.20266,-0.10271 0.36962,-0.33774 0.41001,-0.57732 0.0474,-0.28142 -0.0445,-0.61492 -0.23319,-0.84512 -0.11927,-0.14557 -0.35082,-0.28728 -0.57364,-0.35109 -0.16637,-0.0477 -0.47941,-0.0588 -0.6669,-0.0237 -0.39548,0.0739 -0.69549,0.21733 -1.58367,0.75725 -0.27549,0.16746 -0.67921,0.36593 -0.87834,0.4318 -0.93952,0.31078 -1.89729,0.0153 -2.20992,-0.6817 -0.0662,-0.14779 -0.0862,-0.25248 -0.0846,-0.44339 8.6e-4,-0.14105 0.009,-0.19706 0.0427,-0.30064 0.13305,-0.41133 0.54934,-0.72091 1.02208,-0.76009 l 0.13036,-0.0108 0.004,-2.22978 c 0.003,-1.46897 -8.6e-4,-2.26597 -0.0119,-2.33592 -0.0207,-0.1356 -0.0845,-0.2705 -0.15262,-0.32243 -0.0293,-0.0224 -0.0512,-0.0429 -0.0483,-0.0456 0.003,-0.003 0.0792,-0.009 0.16983,-0.0147 0.0907,-0.005 0.37747,-0.0271 0.63726,-0.0483 0.25979,-0.0211 0.60726,-0.0428 0.77213,-0.0482 0.75967,-0.0249 1.4162,0.1023 1.768,0.34269 0.40303,0.27538 0.61696,0.7504 0.55664,1.23592 -0.0782,0.62897 -0.5457,1.01759 -1.35605,1.12716 -0.15344,0.0207 -0.22154,0.0464 -0.12322,0.0464 0.0824,0 0.42374,0.0709 0.61262,0.12746 0.70957,0.21201 1.17571,0.64895 1.30139,1.21986 0.0411,0.18677 0.038,0.50899 -0.007,0.691 -0.12678,0.51647 -0.56078,0.89099 -1.23349,1.06445 -0.33439,0.0861 -0.87277,0.14319 -1.3541,0.14332 l -0.21348,5e-5 -0.0179,0.10476 c -0.0513,0.29913 -0.28089,0.5389 -0.62666,0.65424 -0.15386,0.0513 -0.4369,0.052 -0.59912,8.6e-4 -0.20118,-0.0626 -0.35865,-0.20798 -0.40304,-0.37204 -0.01,-0.0361 -0.0143,-0.11285 -0.0104,-0.17071 0.009,-0.12994 0.0573,-0.21854 0.16977,-0.3127 0.0439,-0.0368 0.0943,-0.0951 0.11182,-0.12944 0.0363,-0.0712 0.0604,-0.26183 0.0609,-0.48088 v -0.14577 h -0.0444 c -0.0738,0 -0.25699,0.0543 -0.37358,0.11081 -0.0811,0.0394 -0.1452,0.0885 -0.24457,0.18788 -0.20055,0.20056 -0.28293,0.393 -0.28293,0.66092 0,0.35227 0.18295,0.68513 0.49365,0.89814 0.1189,0.0815 0.32426,0.17143 0.4774,0.209 0.18735,0.0459 0.52021,0.0494 0.71505,0.008 0.34425,-0.0743 0.68708,-0.22385 1.12886,-0.49234 0.13748,-0.0836 0.34925,-0.21246 0.47059,-0.28641 0.39887,-0.24317 0.7968,-0.41711 1.11098,-0.48565 0.19699,-0.0431 0.623,-0.0399 0.78891,0.005 0.25171,0.0692 0.5025,0.22645 0.64202,0.40252 0.1558,0.19659 0.22718,0.36752 0.25619,0.61333 0.0546,0.46278 -0.18912,0.86558 -0.60382,0.99812 -0.14681,0.0469 -0.38398,0.0636 -0.53115,0.0375 z m -3.37676,-1.34622 c 0.22985,-0.0542 0.43666,-0.20589 0.52793,-0.38721 0.0413,-0.0823 0.089,-0.25774 0.074,-0.2727 -0.003,-0.003 -0.19854,-0.009 -0.43255,-0.0103 -0.39214,-0.003 -0.43309,-6e-4 -0.52267,0.0292 -0.13559,0.0452 -0.18219,0.0716 -0.23858,0.1359 -0.0888,0.10115 -0.0983,0.25179 -0.0223,0.35431 0.10741,0.14488 0.36807,0.20892 0.61421,0.15089 z m 0.59289,-0.77687 c 0.0128,-0.0207 -0.02,-0.14328 -0.0624,-0.23284 -0.0867,-0.18338 -0.32033,-0.37397 -0.53843,-0.43934 l -0.0355,-0.0106 v 0.34774 0.34773 h 0.31421 c 0.17284,0 0.31775,-0.005 0.32206,-0.0127 z m 0.52865,-0.003 c 0.76532,-0.0584 1.23092,-0.25122 1.53795,-0.63693 0.0914,-0.11482 0.21235,-0.35843 0.21235,-0.4277 0,-0.028 0.011,-0.13204 0.0247,-0.23116 0.0235,-0.1706 0.0231,-0.19333 -0.007,-0.42644 -0.029,-0.2273 -0.0369,-0.25778 -0.10243,-0.3961 -0.0829,-0.17479 -0.17541,-0.30075 -0.31324,-0.42611 -0.13283,-0.12082 -0.20883,-0.17176 -0.38838,-0.26025 -0.44644,-0.22005 -0.9085,-0.29841 -1.76291,-0.29895 h -0.36636 v 1.16239 1.16239 l 0.0827,0.0287 c 0.31929,0.11126 0.56778,0.37591 0.62837,0.66917 l 0.0201,0.0973 0.1111,-3e-5 c 0.0611,-10e-6 0.20629,-0.008 0.32266,-0.0162 z m -0.002,-3.19924 c 0.34715,-0.0376 0.72056,-0.17531 0.92463,-0.34097 0.18873,-0.15321 0.32098,-0.35623 0.38888,-0.59697 0.029,-0.1027 0.035,-0.16275 0.0341,-0.33764 -8.6e-4,-0.25054 -0.0319,-0.38765 -0.13296,-0.59795 -0.0547,-0.11372 -0.0885,-0.15821 -0.21653,-0.28449 -0.11466,-0.11313 -0.18251,-0.16567 -0.27778,-0.21503 -0.25385,-0.13152 -0.56474,-0.20549 -0.92972,-0.22116 -0.2281,-0.01 -0.66062,0.0146 -0.84306,0.0476 l -0.10242,0.0186 -0.003,1.27233 -0.003,1.27233 h 0.50496 c 0.27774,0 0.57384,-0.008 0.658,-0.0166 z m -0.65064,-3.25576 c -0.51291,-0.0418 -0.81154,-0.10219 -0.81154,-0.16424 0,-0.009 0.005,-0.0127 0.013,-0.009 0.008,0.004 0.0456,-0.002 0.0852,-0.0136 0.41222,-0.12407 1.61614,-0.14107 2.15245,-0.0304 0.12109,0.0249 0.19182,0.0508 0.19182,0.0701 0,0.0455 -0.25345,0.0992 -0.63032,0.13361 -0.21477,0.0196 -0.82152,0.0274 -1.00064,0.0128 z m -0.81875,-0.27716 c -0.004,-0.0196 -0.0154,-0.0804 -0.0249,-0.13536 -0.0237,-0.13873 -0.0743,-0.29643 -0.11678,-0.36367 -0.0197,-0.0311 -0.0669,-0.0846 -0.10494,-0.11873 -0.0683,-0.0613 -0.12435,-0.13647 -0.12435,-0.16677 0,-0.0149 0.12539,0.0557 0.14181,0.0799 0.10846,0.15935 0.22802,0.20181 0.32902,0.11684 0.046,-0.0388 0.0493,-0.0392 0.0882,-0.0138 0.0812,0.0532 0.21539,-0.003 0.24428,-0.10363 0.0268,-0.0927 0.0193,-0.16274 -0.0233,-0.2206 -0.0304,-0.0412 -0.0394,-0.0726 -0.0394,-0.13701 0,-0.046 0.008,-0.0836 0.0156,-0.0836 0.0234,0 0.1104,0.12628 0.1104,0.16016 0,0.0162 -0.009,0.0423 -0.0179,0.058 -0.0137,0.0219 -0.0126,0.0449 0.004,0.0973 0.0267,0.0801 0.0761,0.12196 0.16852,0.14271 0.0731,0.0165 0.11541,0.002 0.16161,-0.0548 l 0.0268,-0.0331 0.0368,0.0342 c 0.0811,0.0753 0.21484,0.0551 0.31023,-0.0472 0.0328,-0.0351 0.0359,-0.0494 0.0267,-0.12366 -0.0161,-0.1296 -0.0125,-0.21993 0.0115,-0.28774 l 0.0219,-0.062 0.0363,0.11094 0.0363,0.11094 -0.0353,0.0478 c -0.0501,0.0677 -0.0328,0.16573 0.0414,0.2358 0.0833,0.0786 0.23414,0.0889 0.27784,0.0189 0.0243,-0.0388 0.0295,-0.0381 0.0825,0.011 0.0386,0.0357 0.0546,0.0401 0.12167,0.0337 0.0928,-0.009 0.1513,-0.0483 0.19119,-0.1286 0.0258,-0.052 0.027,-0.0672 0.01,-0.11934 -0.0182,-0.0552 -0.0163,-0.0659 0.0241,-0.14031 0.0242,-0.0444 0.0497,-0.0805 0.0571,-0.0805 0.0239,0 0.0154,0.19924 -0.01,0.21989 -0.0125,0.0104 -0.0306,0.0569 -0.0402,0.10325 -0.0155,0.075 -0.014,0.0914 0.015,0.14817 0.0519,0.10158 0.14951,0.13734 0.23588,0.0863 0.0413,-0.0244 0.0448,-0.0237 0.0875,0.0157 0.0806,0.0747 0.23955,0.0369 0.31248,-0.0744 0.0227,-0.0346 0.15244,-0.13647 0.17387,-0.13647 0.0294,0 -0.0264,0.0815 -0.11672,0.17022 -0.13077,0.1286 -0.18605,0.23996 -0.24014,0.48373 -0.0274,0.12358 -0.0447,0.1723 -0.0602,0.16973 -0.0119,-0.002 -0.0732,-0.0176 -0.13617,-0.0349 -0.28278,-0.0772 -1.06158,-0.1184 -1.52623,-0.081 -0.31032,0.0249 -0.63389,0.0719 -0.70714,0.10255 -0.0736,0.0307 -0.069,0.0314 -0.0782,-0.0108 z m 0.22137,-0.47625 c 0.0624,-0.0261 0.15337,-0.0873 0.14386,-0.0967 -0.003,-0.003 -0.0285,0.004 -0.0557,0.0185 -0.0276,0.0138 -0.11242,0.0288 -0.19183,0.0339 -0.11876,0.008 -0.13769,0.0124 -0.11454,0.0286 0.0596,0.0416 0.14203,0.0476 0.21825,0.0156 z m 2.25237,-0.0208 c 0.0259,-0.015 0.0152,-0.0181 -0.0639,-0.0186 -0.0523,-2.8e-4 -0.13279,-0.0104 -0.17889,-0.0223 -0.0815,-0.0212 -0.083,-0.021 -0.0546,0.008 0.0673,0.0672 0.21127,0.0834 0.29747,0.0334 z m -1.46546,-0.12957 c 0.031,-0.0191 0.054,-0.0372 0.0512,-0.0401 -0.003,-0.003 -0.0369,0.002 -0.0756,0.0109 -0.0388,0.009 -0.12864,0.0138 -0.19971,0.0109 -0.13364,-0.004 -0.13969,-8.6e-4 -0.0599,0.0421 0.0645,0.0349 0.20875,0.0227 0.28407,-0.0238 z m 0.77171,-1.3e-4 c 0.052,-0.0262 0.0804,-0.0428 0.0631,-0.0372 -0.0586,0.0193 -0.29954,0.0255 -0.35895,0.009 -0.0715,-0.0198 -0.0633,8.6e-4 0.0173,0.0438 0.0847,0.0447 0.16802,0.0401 0.27868,-0.0155 z"
       id="path18"
       sodipodi:nodetypes="csssssssssssssccssssssssssssssscsssssssccsssssssssscsssccsssssssscsscccsccsssssssccccsscsccssssssssscccsssssssssssssssssssssssssssscsssscccssssssssssssssssssssssssssssssscssssssssssssss" /></g></svg>
