<?xml version="1.0" encoding="UTF-8" standalone="no"?>
<svg
   class="shopee-svg-icon _1ayx1Y XLYSy4 icon-shopee-logo"
   width="267.07111"
   height="301.49612"
   version="1.1"
   id="svg1"
   sodipodi:docname="shopee.svg"
   inkscape:version="1.3 (0e150ed6c4, 2023-07-21)"
   xmlns:inkscape="http://www.inkscape.org/namespaces/inkscape"
   xmlns:sodipodi="http://sodipodi.sourceforge.net/DTD/sodipodi-0.dtd"
   xmlns="http://www.w3.org/2000/svg"
   xmlns:svg="http://www.w3.org/2000/svg">
  <defs
     id="defs1" />
  <sodipodi:namedview
     id="namedview1"
     pagecolor="#ffffff"
     bordercolor="#000000"
     borderopacity="0.25"
     inkscape:showpageshadow="2"
     inkscape:pageopacity="0.0"
     inkscape:pagecheckerboard="0"
     inkscape:deskcolor="#d1d1d1"
     inkscape:zoom="0.38699988"
     inkscape:cx="416.0208"
     inkscape:cy="143.4109"
     inkscape:window-width="1858"
     inkscape:window-height="1057"
     inkscape:window-x="-8"
     inkscape:window-y="-8"
     inkscape:window-maximized="1"
     inkscape:current-layer="svg1" />
  <g
     style="fill:#f9f9f9;fill-rule:evenodd"
     id="g1"
     transform="translate(-369.50921)">
    <path
       d="m 551.99231,225.64151 c -1.75447,14.47922 -10.52796,26.07549 -24.11782,31.88211 -7.56828,3.23469 -17.73006,4.98098 -25.77346,4.43244 -12.54751,-0.47953 -24.33573,-3.53103 -35.20177,-9.10918 -3.88186,-1.99397 -9.6687,-5.97513 -14.11217,-9.70408 -1.12547,-0.94214 -1.25913,-1.5461 -0.51442,-2.60246 0.40211,-0.60622 1.14344,-1.69991 2.78222,-4.10105 2.37674,-3.48239 2.67327,-3.91896 2.9406,-4.32726 0.76042,-1.1672 1.99596,-1.26899 3.21466,-0.30989 0.12805,0.0995 0.12805,0.0995 0.22463,0.17532 0.19995,0.15494 0.19995,0.15494 0.67168,0.52142 0.47737,0.3721 0.76043,0.59152 0.87499,0.67747 11.71858,9.17817 25.36685,14.47131 39.14541,15.00062 19.17003,-0.26126 32.95534,-8.88071 35.4253,-22.11582 2.71596,-14.56631 -8.71844,-27.14882 -31.08966,-34.16223 -6.99655,-2.19303 -24.68168,-9.27204 -27.94239,-11.18458 -15.31289,-8.98476 -22.47231,-20.75295 -21.45466,-35.28872 1.55903,-20.14899 20.26404,-35.17675 43.89888,-35.27741 10.56952,-0.0216 21.11657,2.17494 31.24916,6.44451 3.58757,1.51216 9.99331,4.99794 12.20493,6.64922 1.27374,0.93535 1.52534,2.02565 0.79524,3.2019 -0.40774,0.682 -1.08166,1.76325 -2.50254,4.01736 l -0.0158,0.0247 c -1.87016,2.9689 -1.92857,3.06165 -2.35764,3.75609 -0.74133,1.12875 -1.61294,1.23393 -2.94958,0.38568 -10.84246,-7.28372 -22.86206,-10.9482 -36.08126,-11.21286 -16.45745,0.32574 -28.79267,10.1203 -29.60364,23.46286 -0.21563,12.05093 8.82291,20.84908 28.34675,27.55711 39.63065,12.7352 54.79639,27.6657 51.94228,51.20659 M 503.04903,17.604215 c 25.80153,0 46.83274,24.485291 47.81669,55.135724 h -95.63225 c 0.98394,-30.650433 22.01515,-55.135724 47.81556,-55.135724 m 133.53088,60.898231 c 0,-3.182664 -2.56319,-5.762507 -5.72394,-5.762507 H 568.86984 C 567.349,32.270054 538.46197,7.11978e-6 503.04903,7.11978e-6 467.63721,7.11978e-6 438.75019,32.270054 437.22934,72.739939 l -62.07486,0.0011 c -3.11245,0.05658 -5.61836,2.614901 -5.61836,5.761376 0,0.150422 0.006,0.299737 0.0169,0.446737 h -0.0438 l 8.84875,195.060078 c 10e-4,0.54288 0.0213,1.09029 0.0618,1.6411 0.009,0.12442 0.0191,0.24768 0.0292,0.37094 l 0.0191,0.41169 0.0213,0.0216 c 1.3445,13.57328 11.19515,24.50564 24.58958,25.01008 l 0.0303,0.0295 h 196.90646 c 0.0932,10e-4 0.18647,0.002 0.27968,0.002 0.0932,0 0.18647,-0.001 0.27969,-0.002 h 0.41894 l 0.009,-0.008 c 13.62805,-0.37211 24.66708,-11.45716 25.83298,-25.19783 l 0.007,-0.007 0.009,-0.18437 c 0.0111,-0.14479 0.0216,-0.28842 0.0305,-0.43316 0.0216,-0.3461 0.0358,-0.69105 0.0416,-1.03375 l 9.65521,-195.830277 h -0.007 c 0.006,-0.09842 0.008,-0.197947 0.008,-0.297473"
       style="fill:#f9f9f9;stroke-width:5.26316"
       id="path1"
       sodipodi:nodetypes="ccccccscccccccccccccccccccccccccccscsccsccccccccccsccccccccccc" />
  </g>
</svg>
