<?xml version="1.0" encoding="UTF-8" standalone="no"?>
<!-- Created with Inkscape (http://www.inkscape.org/) -->

<svg
   width="12.556727mm"
   height="11.8808mm"
   viewBox="0 0 12.556727 11.8808"
   version="1.1"
   id="svg1"
   xml:space="preserve"
   xmlns:inkscape="http://www.inkscape.org/namespaces/inkscape"
   xmlns:sodipodi="http://sodipodi.sourceforge.net/DTD/sodipodi-0.dtd"
   xmlns="http://www.w3.org/2000/svg"
   xmlns:svg="http://www.w3.org/2000/svg"><sodipodi:namedview
     id="namedview1"
     pagecolor="#ffffff"
     bordercolor="#000000"
     borderopacity="0.25"
     inkscape:showpageshadow="2"
     inkscape:pageopacity="0.0"
     inkscape:pagecheckerboard="0"
     inkscape:deskcolor="#d1d1d1"
     inkscape:document-units="mm" /><defs
     id="defs1" /><g
     inkscape:label="Layer 1"
     inkscape:groupmode="layer"
     id="layer1"
     transform="translate(755.26076,-257.03753)"><path
       id="path2"
       style="fill:#ffd947;fill-opacity:1;stroke-width:0.0689906"
       d="m -747.64842,257.03754 c -0.0121,-10e-6 -0.023,0.002 -0.0331,0.004 0.0236,-0.005 0.0569,-0.003 0.0796,0.004 -6.7e-4,-2.9e-4 -0.004,-0.003 -0.004,-0.003 -0.0118,-0.003 -0.0272,-0.005 -0.0424,-0.005 z m -2.1761,0.001 c -0.0165,7.5e-4 -0.0324,0.004 -0.0444,0.008 -0.0695,0.0259 -0.82562,0.75277 -0.83922,0.80667 -0.0183,0.0731 0.0287,0.13422 0.40204,0.52193 v 5.2e-4 c 0.18917,0.19645 0.34953,0.35711 0.35553,0.35708 0.0249,-9e-5 0.96067,-0.84379 0.96067,-0.86609 0,-0.0408 -0.73677,-0.81134 -0.78807,-0.82424 -0.0129,-0.003 -0.03,-0.005 -0.0465,-0.004 z m 2.13476,0.004 c -0.0228,0.006 -0.15314,0.11884 -0.40256,0.34313 0.20181,-0.18328 0.38139,-0.33655 0.40462,-0.34313 -5.7e-4,1.4e-4 -0.002,-1.5e-4 -0.002,0 z m 0.10025,0.0129 c 0.0165,0.01 0.0632,0.0526 0.13643,0.12557 -0.0689,-0.0682 -0.11416,-0.10978 -0.13643,-0.12557 z m 0.18293,0.17415 c 0.0743,0.0751 0.15765,0.16022 0.25115,0.25993 0.19629,0.20931 0.29896,0.32243 0.35244,0.39739 -0.0532,-0.0766 -0.15566,-0.18902 -0.35606,-0.40255 -0.0939,-0.10002 -0.17444,-0.18129 -0.24753,-0.25477 z m -0.91622,0.36484 c -0.16604,0.15064 -0.26816,0.24257 -0.55965,0.50901 -0.23056,0.21075 -0.73285,0.66448 -1.11622,1.00872 -0.0975,0.0876 -0.16614,0.15064 -0.25063,0.22738 0.10867,-0.0982 0.21767,-0.19721 0.31988,-0.28732 0.28456,-0.25089 0.65127,-0.58434 1.60662,-1.45779 z m 1.53893,0.31677 c 0.007,0.0102 0.0102,0.0178 0.0145,0.0264 -0.004,-0.008 -0.009,-0.0169 -0.0145,-0.0264 z m 0.0258,0.0517 c 10e-4,0.004 9.4e-4,0.008 0.002,0.0124 -5.7e-4,-0.004 -3.3e-4,-0.008 -0.002,-0.0124 z m 0.002,0.0382 c -8.9e-4,0.004 -0.003,0.008 -0.004,0.0114 0.001,-0.004 0.003,-0.007 0.004,-0.0114 z m -0.0134,0.03 c -0.004,0.006 -0.009,0.0124 -0.0145,0.0191 0.005,-0.006 0.0104,-0.013 0.0145,-0.0191 z m -0.0181,0.0233 c -0.0347,0.0391 -0.84459,0.7701 -1.49913,1.35289 -0.10708,0.0953 -0.39863,0.35815 -0.64802,0.58394 -0.51285,0.46434 -0.69006,0.62324 -0.7643,0.68471 0.0714,-0.0545 0.1993,-0.16087 0.22583,-0.19223 0.009,-0.0103 0.23153,-0.21126 0.96686,-0.87282 0.18535,-0.16675 0.3822,-0.34494 0.4377,-0.39584 0.0555,-0.0509 0.25685,-0.23108 0.44752,-0.40049 0.46533,-0.41346 0.75569,-0.67714 0.81649,-0.74104 0.007,-0.007 0.0115,-0.0129 0.0171,-0.0191 z m -5.16816,0.82424 c -0.0628,0 -0.0886,0.0213 -0.49144,0.39842 -0.3456,0.32347 -0.41183,0.40397 -0.39223,0.48007 0.0115,0.0445 0.24056,0.28678 0.96429,1.01958 0.23291,0.23583 0.69008,0.70355 1.01596,1.03973 0.32588,0.33619 0.61959,0.63796 0.65319,0.67076 l 0.061,0.0599 0.10491,-0.091 c 0.0576,-0.0499 0.1742,-0.15486 0.2589,-0.23306 0.0847,-0.0783 0.25426,-0.23186 0.37723,-0.34158 0.12302,-0.10972 0.22159,-0.20539 0.21859,-0.21239 -0.003,-0.007 -0.29998,-0.31598 -0.66094,-0.68574 -0.93563,-0.9584 -1.12223,-1.15059 -1.56166,-1.61179 -0.42955,-0.45085 -0.47607,-0.49299 -0.54777,-0.49299 z m 6.20996,0.12247 c -0.043,0.003 -0.0943,0.0354 -0.16795,0.1018 -0.25902,0.23388 -0.25754,0.23561 -0.39171,0.35812 0.14629,-0.13234 0.2946,-0.26805 0.37672,-0.34055 0.15313,-0.13518 0.19507,-0.14661 0.32298,-0.0243 -0.0523,-0.0513 -0.0883,-0.0852 -0.0992,-0.0894 -0.013,-0.005 -0.0265,-0.007 -0.0408,-0.006 z m -1.98283,0.20567 -0.0739,0.0703 c -0.0896,0.0852 -0.65462,0.60144 -0.77877,0.71158 -0.049,0.0434 -0.0889,0.0881 -0.0889,0.0992 0,0.0111 0.24477,0.26728 0.54415,0.56896 0.29937,0.30169 0.91685,0.92817 1.37201,1.39216 0.71986,0.73376 0.83148,0.84059 0.85628,0.81959 0.15848,-0.13383 0.91312,-0.82139 0.91312,-0.83199 0,-0.008 -0.0429,-0.055 -0.0956,-0.1049 -0.1237,-0.1173 -1.05003,-1.07063 -1.60972,-1.65675 -0.23957,-0.25088 -0.5711,-0.59398 -0.73691,-0.76222 z m 2.30271,0.0729 c 0.43986,0.46013 0.59773,0.63439 0.60306,0.67283 -0.006,-0.0326 -0.0492,-0.0908 -0.13849,-0.18552 -0.22422,-0.23761 -0.35136,-0.37011 -0.46457,-0.48731 z m -5.04828,0.26459 c -0.0557,0.0512 -0.0617,0.0586 -0.0977,0.0925 0.0332,-0.0314 0.0466,-0.0454 0.0977,-0.0925 z m -0.22065,0.21032 c 0,10e-6 -5.2e-4,5.1e-4 -5.2e-4,5.2e-4 0,0.0174 0.26511,0.29933 0.67334,0.71572 h 5.2e-4 c 0.11017,0.11236 0.1932,0.19208 0.23151,0.22376 -0.043,-0.0353 -0.22095,-0.21277 -0.44855,-0.45062 -0.25095,-0.26228 -0.45586,-0.48223 -0.4563,-0.48938 z m 5.87406,0.20412 c -1.9e-4,0.005 -0.005,0.0125 -0.008,0.0186 0.002,-0.005 0.008,-0.0126 0.008,-0.016 0,-6.7e-4 -4.7e-4,-0.002 -5.1e-4,-0.003 z m -0.29714,0.31058 c -0.28008,0.25334 -0.66013,0.59009 -0.67593,0.59428 3e-5,-10e-6 4.9e-4,5.2e-4 5.2e-4,5.1e-4 0.014,-0.003 0.23859,-0.19752 0.49919,-0.43201 0.0875,-0.0787 0.11653,-0.10784 0.17622,-0.16278 z m -4.62608,0.44131 c -0.006,0.003 -0.0137,0.009 -0.0165,0.009 1.6e-4,3e-5 0.002,0.002 0.002,0.002 7.6e-4,0 0.0125,-0.0103 0.0145,-0.0114 z m -4.43435,0.0677 c -0.0651,7.6e-4 -0.16265,0.0924 -0.56896,0.46922 -0.30205,0.28015 -0.34558,0.3315 -0.34571,0.4098 -1.1e-4,0.0537 0.11728,0.18602 0.57412,0.6475 0.12169,0.12293 0.23453,0.22324 0.25063,0.22324 0.0161,0 0.18823,-0.14217 0.38241,-0.31625 0.19417,-0.17408 0.4079,-0.36497 0.4749,-0.42427 0.0669,-0.0593 0.12193,-0.11599 0.12248,-0.12609 5.3e-4,-0.01 -0.0502,-0.0722 -0.11266,-0.13849 -0.47147,-0.50006 -0.66732,-0.69904 -0.71262,-0.72244 -0.0246,-0.0127 -0.0429,-0.0225 -0.0646,-0.0222 z m 2.09548,0.14418 c -6.5e-4,0 -0.0493,0.0437 -0.0548,0.0481 0.009,-0.007 0.0536,-0.0475 0.0553,-0.0476 z m 4.00234,0.10232 -0.34624,0.30902 c -0.19042,0.17005 -0.45587,0.40771 -0.59014,0.52814 -0.36217,0.32481 -0.56607,0.50715 -1.26917,1.13378 -0.19962,0.1779 -0.26442,0.23867 -0.39378,0.35605 0.11221,-0.10133 0.1976,-0.17936 0.4129,-0.37104 0.3111,-0.27697 0.77549,-0.69097 1.03198,-0.92036 0.25649,-0.22939 0.61588,-0.55057 0.7984,-0.71365 0.18253,-0.16307 0.33899,-0.29662 0.34778,-0.29662 0.0226,0 0.95962,0.94504 0.96376,0.97203 0.002,0.01 -0.0378,0.0535 -0.0879,0.10077 l 0.10594,-0.0992 -0.48679,-0.49971 z m 4.46019,0.16433 c -0.0116,6.7e-4 -0.0268,0.007 -0.0419,0.0134 0.0127,-0.005 0.0235,-0.006 0.0346,-0.006 0.0206,0 0.0426,0.01 0.0723,0.0315 -0.009,-0.007 -0.0373,-0.0355 -0.0398,-0.0362 -0.008,-0.002 -0.0163,-0.003 -0.0253,-0.003 z m -0.0765,0.0336 c -0.0697,0.042 -0.17728,0.13262 -0.39378,0.32918 -0.35209,0.31968 -0.94149,0.84741 -2.06757,1.85053 l -0.58136,0.5178 0.20722,0.21187 c 0.11377,0.11647 0.33379,0.34094 0.48938,0.4992 0.0265,0.0269 0.0454,0.0441 0.0703,0.0687 -0.0803,-0.0804 -0.1658,-0.16592 -0.26872,-0.27182 -0.26213,-0.26973 -0.47646,-0.49831 -0.47646,-0.50798 0,-0.01 0.42866,-0.39881 0.9524,-0.86455 0.52374,-0.46575 1.05097,-0.9361 1.17202,-1.04541 0.63806,-0.57621 0.8187,-0.7384 0.89659,-0.78755 z m -8.74624,0.016 c -0.29978,0.26595 -0.69617,0.62046 -1.01699,0.91415 -0.11039,0.10106 -0.55987,0.50327 -0.9989,0.89349 -0.28506,0.25334 -0.3936,0.35295 -0.5116,0.46147 0.15125,-0.13787 0.31894,-0.28777 0.80822,-0.72244 0.26594,-0.23625 0.74221,-0.664 1.05833,-0.95033 0.331,-0.2998 0.50494,-0.45631 0.66094,-0.59634 z m 8.97775,0.0713 c 0.0544,0.0521 0.11196,0.10927 0.23461,0.23771 0.38108,0.39916 0.48655,0.51042 0.51573,0.56224 -0.0264,-0.0545 -0.1197,-0.15675 -0.41703,-0.46509 -0.13393,-0.13888 -0.24683,-0.25121 -0.33331,-0.33486 z m -8.215,0.0155 c 0.0804,0.0822 0.13139,0.13515 0.21652,0.22118 l 0.0439,0.0444 -0.17932,-0.18448 c -0.0434,-0.0447 -0.0408,-0.04 -0.0811,-0.0811 z m 0.55138,0.56483 -0.0212,0.0243 0.0217,-0.0238 z m -0.0356,0.0398 c -0.007,0.007 -0.0905,0.0833 -0.12093,0.11162 0.0189,-0.0178 0.10929,-0.0986 0.11369,-0.10335 z m 8.45219,0.1881 c 0.005,0.0114 0.008,0.0212 0.008,0.0305 3e-5,-10e-4 5.2e-4,-0.002 5.2e-4,-0.003 0,-0.008 -0.005,-0.0179 -0.009,-0.0274 z m 0.006,0.0403 c -0.004,0.0295 -0.0299,0.0685 -0.0837,0.11937 -0.0967,0.0912 -1.05075,0.9465 -1.41851,1.27176 -0.14559,0.12875 -0.41654,0.3747 -0.69505,0.62528 0.15428,-0.13911 0.37703,-0.33902 0.60358,-0.54053 0.72998,-0.64933 1.48846,-1.32788 1.54616,-1.38338 0.0301,-0.0289 0.0441,-0.0596 0.0475,-0.0925 z m -9.02167,0.28474 c -0.20275,0.18215 -0.41096,0.36921 -0.74466,0.66714 -0.25185,0.22484 -0.76485,0.68449 -1.13998,1.02164 -0.48517,0.43604 -0.69626,0.61467 -0.73122,0.61857 -0.0428,0.004 -0.10566,-0.0522 -0.48111,-0.4346 -0.33535,-0.34154 -0.42069,-0.4377 -0.4284,-0.48162 0.007,0.0521 0.0556,0.10925 0.35502,0.41599 0.1971,0.20192 0.38948,0.39752 0.42788,0.43512 0.10622,0.10426 0.14841,0.0961 0.32091,-0.0641 0.0786,-0.073 0.18443,-0.16956 0.23513,-0.21446 0.0507,-0.0449 0.29263,-0.26218 0.53795,-0.48317 0.40924,-0.36865 0.93236,-0.83695 1.21336,-1.08573 0.13557,-0.12002 0.24998,-0.22712 0.43512,-0.3948 z m -0.28681,0.58807 c -0.0202,-0.003 -0.0452,0.0163 -0.10955,0.0744 -0.15095,0.13628 -0.76282,0.69814 -0.82372,0.75654 l -0.0543,0.0522 0.81183,0.81649 c 0.44625,0.44917 1.05792,1.06527 1.35961,1.36891 0.30171,0.30364 0.55686,0.55159 0.56586,0.55139 0.009,-2.4e-4 0.16457,-0.13239 0.3452,-0.29352 0.18064,-0.16112 0.40066,-0.35479 0.48886,-0.43099 l 0.16071,-0.13849 -0.71727,-0.72244 c -0.67428,-0.67919 -1.23281,-1.24427 -1.75131,-1.77198 -0.12357,-0.12577 -0.2385,-0.2394 -0.2558,-0.2527 -0.007,-0.005 -0.0134,-0.009 -0.0202,-0.01 z m 3.78168,0.008 c -0.35256,0.31588 -0.63013,0.56229 -0.91932,0.82321 -0.5521,0.49811 -0.87842,0.7869 -0.89814,0.79478 6.8e-4,2.8e-4 0.006,0.006 0.006,0.006 0.0121,0 0.0276,-0.008 0.0336,-0.0186 0.006,-0.0102 0.12852,-0.12288 0.2713,-0.25063 0.14278,-0.12775 0.50515,-0.45406 0.80512,-0.72502 0.29997,-0.27095 0.61534,-0.55422 0.70124,-0.62942 z m 0.3111,0.0181 c -0.0232,0 -0.9334,0.82958 -0.9462,0.86248 -0.004,0.01 0.26739,0.29339 0.60255,0.63097 0.33516,0.3376 1.00335,1.01153 1.48466,1.49758 0.48132,0.48606 0.89568,0.89486 0.92088,0.90796 0.0552,0.0289 0.0583,0.0287 0.11885,0.006 0.0654,-0.0249 0.78779,-0.70486 0.80099,-0.75396 0.006,-0.0217 0.0107,-0.0558 0.0109,-0.0754 1.6e-4,-0.0228 -0.35203,-0.38935 -0.98134,-1.02165 -0.84963,-0.85366 -1.73519,-1.76107 -1.93683,-1.98489 -0.0338,-0.0377 -0.0674,-0.0687 -0.0744,-0.0687 z m 4.26434,0.29301 -0.18087,0.16846 c -0.0994,0.0925 -0.3097,0.28546 -0.46716,0.42892 -0.15747,0.14347 -0.28793,0.2664 -0.29093,0.2744 -0.003,0.007 0.17892,0.20101 0.40359,0.43046 0.40719,0.41548 0.40869,0.4174 0.47439,0.4067 0.0536,-0.009 0.13336,-0.0726 0.42685,-0.34262 0.45169,-0.41524 0.44235,-0.40586 0.44235,-0.48576 0,-0.0603 -0.0292,-0.0947 -0.40411,-0.47284 z m -7.25072,0.20825 c -0.008,0.008 -0.0658,0.0594 -0.0687,0.0625 l -0.0543,0.0574 0.20929,0.21394 c 0.11497,0.11768 0.33221,0.33945 0.48265,0.49248 0.082,0.0834 0.15339,0.15249 0.20826,0.2036 -0.0567,-0.0533 -0.19,-0.18498 -0.41031,-0.41134 -0.26007,-0.26723 -0.47529,-0.4913 -0.47801,-0.49816 -0.003,-0.008 0.0256,-0.0402 0.11111,-0.12041 z m 5.7583,0.83819 c -0.14592,0.13176 -0.32731,0.29321 -0.40153,0.36122 -0.0244,0.0224 -0.0435,0.0379 -0.0656,0.0574 0.0785,-0.0677 0.23355,-0.20677 0.46715,-0.41858 z m -0.57464,0.50695 c -0.003,0.002 -0.0115,0.009 -0.0134,0.01 4e-5,-10e-6 4.9e-4,5.2e-4 5.2e-4,5.2e-4 8.2e-4,-1.9e-4 0.0117,-0.01 0.0129,-0.0103 z m -6.62492,0.015 c -2.3e-4,0 -0.002,10e-4 -0.002,10e-4 0.015,0.002 0.23762,0.21868 0.49713,0.48473 l 0.39326,0.40307 c -0.175,-0.1924 -0.8677,-0.88883 -0.88832,-0.88883 z m -0.18087,0.13384 c -0.28031,0.23209 -0.78615,0.6904 -0.80563,0.74207 -0.01,0.0251 -0.0121,0.0616 -0.004,0.0817 0.002,0.006 0.0435,0.0501 0.0651,0.0749 -0.0492,-0.0596 -0.0656,-0.0915 -0.0656,-0.1173 0,-0.0496 0.0408,-0.0929 0.36018,-0.38086 0.22778,-0.2053 0.35711,-0.32041 0.4501,-0.40049 z m 4.41265,0.0119 c -2.8e-4,0 -0.001,5.1e-4 -0.002,5.2e-4 0.0239,0.002 1.00976,0.99856 1.00976,1.02113 0,0.008 -0.34176,0.32109 -0.75913,0.69608 -0.41506,0.37292 -0.59773,0.54045 -0.93947,0.84904 0.11566,-0.10529 0.29231,-0.26531 0.54105,-0.48834 0.30667,-0.27497 0.6944,-0.62323 0.86196,-0.7736 0.16757,-0.15035 0.30324,-0.27925 0.30024,-0.28525 -0.0146,-0.0371 -0.99066,-1.01958 -1.01286,-1.01958 z m -0.007,0.003 c -0.0164,0.003 -0.09,0.065 -0.23203,0.19224 0.14885,-0.13316 0.2164,-0.18834 0.23203,-0.19224 z m -0.23203,0.19224 c -0.1149,0.10293 -0.2573,0.23184 -0.56844,0.51677 -0.39784,0.36433 -0.71228,0.6458 -1.87586,1.67793 -0.0131,0.0116 -0.0198,0.0186 -0.0325,0.03 0.12998,-0.11587 0.29878,-0.26462 0.51883,-0.45785 0.28045,-0.24626 1.0769,-0.95807 1.21594,-1.08676 0.34927,-0.32328 0.58782,-0.54206 0.74208,-0.68006 z m -3.14503,0.74001 c -0.13805,0.1256 -0.56194,0.51027 -0.58756,0.5333 -0.008,0.007 -0.0571,0.0527 -0.0992,0.0915 0.0506,-0.0448 0.0863,-0.0751 0.16433,-0.14677 0.16433,-0.15108 0.37499,-0.34324 0.46819,-0.42684 0.0214,-0.0192 0.0356,-0.0335 0.0543,-0.0512 z m -1.72134,0.0108 c 0.11524,0.12486 0.28499,0.29941 0.44958,0.46509 -0.23831,-0.24193 -0.37098,-0.37798 -0.44958,-0.46509 z m 0.50178,0.5178 c 0.0487,0.0486 0.0908,0.091 0.12919,0.12816 -0.0358,-0.0341 -0.0788,-0.077 -0.12919,-0.12816 z m 0.46198,0.15916 c -0.0273,0.025 -0.0529,0.0475 -0.0739,0.062 0.0174,-0.0135 0.0489,-0.0406 0.0739,-0.062 z m -0.2713,0.0253 c 0.0245,0.0223 0.0677,0.0649 0.0734,0.0672 h 5.2e-4 c 0.0207,0.009 0.042,0.0157 0.047,0.016 0.01,5.5e-4 0.0311,-0.013 0.0605,-0.0346 -0.0545,0.0321 -0.10087,0.0195 -0.18139,-0.0486 z m 4.60231,0.41496 -0.0837,0.0754 c -0.0458,0.0415 -0.18189,0.16714 -0.30231,0.27905 -0.12043,0.1119 -0.30707,0.28444 -0.41496,0.38344 -0.10784,0.099 -0.19585,0.18469 -0.19585,0.19069 0,0.006 0.18738,0.19696 0.41599,0.42478 0.43849,0.43699 0.45397,0.44806 0.55656,0.39326 0.0517,-0.0276 0.83006,-0.7593 0.85266,-0.8015 0.009,-0.0177 0.0176,-0.0469 0.0176,-0.0646 0,-0.0177 -0.19058,-0.2229 -0.42323,-0.4563 z m -3.18947,0.6165 c -0.0823,0.0787 -0.13339,0.13224 -0.13643,0.1447 -0.002,0.006 -0.002,0.0136 -0.002,0.0207 0.0107,-0.0318 0.0439,-0.0741 0.1385,-0.16537 z m 2.07067,0.10232 c -0.30649,0.27723 -0.77539,0.6987 -0.92397,0.83509 -0.21524,0.19759 -0.26214,0.23255 -0.31213,0.23255 -0.0247,0 -0.0471,-0.008 -0.0868,-0.0403 0.008,0.006 0.0333,0.0324 0.0362,0.0336 0.0688,0.0298 0.12061,0.005 0.2589,-0.12712 0.0654,-0.0622 0.32382,-0.29785 0.57464,-0.52349 0.20091,-0.18074 0.34929,-0.31539 0.4532,-0.41031 z m -2.20555,0.10542 c 10e-4,0.004 10e-4,0.01 0.003,0.0134 10e-4,0.002 0.0213,0.0232 0.0253,0.0284 -0.0185,-0.0225 -0.0244,-0.033 -0.0284,-0.0419 z m 0.0491,0.0656 c 0.11884,0.14336 0.65496,0.69539 0.80874,0.83354 -0.0425,-0.0368 -0.0959,-0.0884 -0.19327,-0.18758 -0.33876,-0.34525 -0.5298,-0.54577 -0.61547,-0.64596 z"
       inkscape:export-filename="wahyu-logo.svg"
       inkscape:export-xdpi="96"
       inkscape:export-ydpi="96" /><path
       style="fill:#f9f9f9;stroke-width:0.0689906"
       d="m -750.58903,268.66301 c -0.47772,-0.48688 -0.67256,-0.69649 -0.67256,-0.72357 0,-0.0768 0.0662,-0.1406 0.94638,-0.91351 0.28045,-0.24626 1.07677,-0.95805 1.21581,-1.08674 0.69853,-0.64656 0.95418,-0.87526 0.9784,-0.87526 0.0224,0 1.01045,0.99926 1.01045,1.02185 0,0.008 -0.3415,0.32075 -0.75887,0.69574 -0.92872,0.83441 -1.76424,1.58943 -2.10227,1.89973 -0.21524,0.19759 -0.2623,0.23265 -0.31229,0.23265 -0.0515,0 -0.0895,-0.0312 -0.30505,-0.25089 z m -2.16954,-2.17131 c -0.53918,-0.54718 -0.5831,-0.59676 -0.5831,-0.65816 0,-0.0496 0.0411,-0.0929 0.36048,-0.38084 0.49459,-0.44578 0.59911,-0.53479 0.62762,-0.53444 0.0136,1.3e-4 0.23763,0.21873 0.49804,0.4857 l 0.47347,0.48541 -0.0727,0.0663 c -0.0903,0.0823 -0.60778,0.55224 -0.63548,0.57714 -0.0112,0.0101 -0.0759,0.0696 -0.1439,0.13229 -0.18758,0.17311 -0.18087,0.17532 -0.52444,-0.17334 z m 6.5169,-2.06414 c -0.26213,-0.26973 -0.47659,-0.49832 -0.47659,-0.50799 0,-0.01 0.42851,-0.39864 0.95225,-0.86438 0.52374,-0.46575 1.05128,-0.93624 1.17233,-1.04555 0.89307,-0.80649 0.9019,-0.81393 0.96576,-0.81393 0.0557,0 0.0913,0.0316 0.39673,0.35145 0.51002,0.53421 0.52711,0.55378 0.52711,0.60362 0,0.03 -0.0289,0.0721 -0.0866,0.1267 -0.0967,0.0912 -1.05087,0.9468 -1.41864,1.27206 -0.28131,0.24878 -1.0947,0.98039 -1.34294,1.20788 -0.0963,0.0883 -0.18362,0.16053 -0.19397,0.16053 -0.0103,0 -0.23325,-0.22067 -0.49537,-0.49039 z m -8.58388,-0.11193 c -0.35225,-0.35875 -0.43198,-0.4492 -0.43198,-0.49008 0,-0.0757 -0.11967,0.0381 1.09478,-1.04079 0.26594,-0.23625 0.74216,-0.6638 1.05828,-0.95013 0.81272,-0.73613 1.0105,-0.91261 1.0227,-0.91261 0.006,0 0.0712,0.0636 0.14515,0.1414 0.074,0.0778 0.28643,0.295 0.47217,0.48271 l 0.33772,0.34131 -0.0355,0.04 c -0.0354,0.0399 -0.44401,0.4084 -1.311,1.18244 -0.25185,0.22484 -0.76483,0.68464 -1.13996,1.02179 -0.48517,0.43604 -0.69625,0.61457 -0.73121,0.61847 -0.0428,0.004 -0.1057,-0.0521 -0.48115,-0.43447 z m 4.28314,-0.13898 c -0.26007,-0.26723 -0.47507,-0.49148 -0.47779,-0.49834 -0.007,-0.0173 0.10359,-0.11964 0.75303,-0.69783 0.3111,-0.27697 0.77549,-0.69127 1.03198,-0.92066 0.25649,-0.22939 0.61569,-0.5505 0.79821,-0.71358 0.18253,-0.16307 0.33906,-0.2965 0.34785,-0.2965 0.0226,0 0.9596,0.94518 0.96374,0.97217 0.002,0.0122 -0.0515,0.0707 -0.11861,0.13 -0.30828,0.27225 -1.30832,1.16802 -1.909,1.70997 -0.55968,0.50495 -0.89397,0.80063 -0.90522,0.80063 -0.006,0 -0.22411,-0.21864 -0.48419,-0.48586 z m 4.48894,-3.5509 c -0.1298,-0.13359 -0.34271,-0.35666 -0.47313,-0.4957 l -0.23714,-0.2528 0.11854,-0.10956 c 0.16328,-0.15091 0.56012,-0.50965 0.71627,-0.6475 0.18298,-0.16154 0.19837,-0.15946 0.40367,0.0546 0.56576,0.58978 0.70461,0.74387 0.70461,0.78196 0,0.0231 -0.0296,0.0685 -0.0693,0.10601 -0.20554,0.19443 -0.88565,0.7962 -0.90494,0.8007 -0.0124,0.003 -0.12873,-0.10406 -0.25854,-0.23766 z m -4.18536,-0.38218 c -0.25142,-0.26276 -0.45712,-0.48322 -0.45712,-0.48992 0,-0.0109 0.44426,-0.41766 0.76662,-0.70188 0.30954,-0.27291 0.63383,-0.56729 1.80421,-1.63779 0.2168,-0.1983 0.41382,-0.36575 0.4378,-0.3721 0.024,-0.006 0.0634,-0.004 0.0876,0.004 0.0241,0.009 0.22417,0.20851 0.44446,0.44342 0.42421,0.45236 0.44188,0.47936 0.36861,0.56339 -0.0323,0.037 -0.84503,0.77044 -1.5006,1.35414 -0.10708,0.0953 -0.39873,0.35809 -0.64812,0.58388 -0.76338,0.69118 -0.80721,0.72985 -0.82707,0.72985 -0.0106,0 -0.22493,-0.21498 -0.47635,-0.47774 z"
       id="path1" /></g></svg>
